<?xml version="1.0" encoding="UTF-8" standalone="no"?>
<svg
   xmlns:osb="http://www.openswatchbook.org/uri/2009/osb"
   xmlns:dc="http://purl.org/dc/elements/1.1/"
   xmlns:cc="http://creativecommons.org/ns#"
   xmlns:rdf="http://www.w3.org/1999/02/22-rdf-syntax-ns#"
   xmlns:svg="http://www.w3.org/2000/svg"
   xmlns="http://www.w3.org/2000/svg"
   id="svg8"
   version="1.1"
   viewBox="0 0 50.45982 50.45982"
   height="50.45982mm"
   width="50.45982mm">
  <defs
     id="defs2">
    <linearGradient
       osb:paint="solid"
       id="linearGradient6044">
      <stop
         id="stop6042"
         offset="0"
         style="stop-color:#000000;stop-opacity:1;" />
    </linearGradient>
  </defs>
  <metadata
     id="metadata5">
    <rdf:RDF>
      <cc:Work
         rdf:about="">
        <dc:format>image/svg+xml</dc:format>
        <dc:type
           rdf:resource="http://purl.org/dc/dcmitype/StillImage" />
        <dc:title></dc:title>
      </cc:Work>
    </rdf:RDF>
  </metadata>
  <g
     transform="translate(-36.096729,-7.0922537)"
     id="layer1">
    <circle
       r="19.109772"
       cy="30.265011"
       cx="61.137905"
       id="path6099"
       style="fill:#1d97d8;fill-opacity:1;stroke:none;stroke-width:1.74600005;stroke-miterlimit:4;stroke-dasharray:none;stroke-opacity:1" />
    <path
       id="path4551"
       d="m 74.367748,30.866367 c -1e-6,7.509602 -5.671874,12.22758 -13.163025,12.22758 -7.49115,-10e-7 -13.563927,-6.087735 -13.563928,-13.597336 0,-7.509601 6.072777,-13.597336 13.563928,-13.597337 7.491151,0 13.163025,7.457491 13.163025,14.967093 z"
       style="fill:#daae00;fill-opacity:1;stroke:none;stroke-width:0.96499997;stroke-miterlimit:4;stroke-dasharray:none;stroke-opacity:1" />
    <path
       id="path4556"
       d="m 60.511621,32.761317 c 0.403946,-0.548941 -0.446361,-0.01012 -0.609852,0.07617 -0.167186,0.248511 -0.392323,0.402553 -0.617234,0.603059 -0.401802,0.326074 -0.716301,0.522961 -1.119207,0.803409 -0.189702,0.115479 -0.3835,0.440948 -0.669026,0.598105 -0.254033,0.154163 -0.504579,0.236454 -0.701604,0.467734 -0.290308,0.169086 -0.454692,0.397098 -0.768418,0.60137 -0.314777,0.212056 -0.43667,0.385547 -0.701596,0.701595 -0.195028,0.318199 -0.328431,0.810985 -0.245133,1.164487 0.07525,0.460131 0.175256,0.872869 0.545818,1.207577 0.265334,0.407653 0.533774,0.811167 0.6682,1.236148 0.116599,0.31689 0.230228,0.603445 0.26728,0.935471 0.05369,0.611406 0.08202,1.290096 -0.13364,1.870904 -0.05504,0.430371 -0.109877,0.819904 -0.3341,1.169332 -0.141069,0.33964 -0.29592,0.598816 -0.40092,0.935473 -0.179878,0.378291 -0.257093,0.79546 -0.36751,1.202748 -0.04483,0.535632 -0.181679,1.035114 -0.30069,1.570219 0.01839,0.420455 -0.08857,0.788986 -0.16705,1.169318 -0.132154,0.362816 -0.201291,0.692899 -0.30069,1.0691 -0.138022,0.614071 -0.303626,1.121804 -0.300677,1.694196 -0.02198,0.403247 -0.08521,0.810224 0.06682,1.112141 0.08812,0.266985 0.233536,0.411134 0.43433,0.567967 0.224506,0.185597 0.555291,0.240182 0.86863,0.3341 0.524662,0.05324 1.027134,0.173159 1.510497,0.315717 0.298024,0.02256 0.838332,0.116435 1.262212,0.0852 0.919257,-0.0054 1.838769,-0.01072 2.744459,0.06682 0.735315,0.01075 1.469802,0.01308 2.179399,-0.13221 0.338102,-0.07831 0.811871,-0.169618 1.190186,-0.30212 0.428829,-0.297406 1.193947,-0.514809 1.737254,-0.801825 0.463139,-0.235869 1.171703,-0.361489 1.536804,-0.801808 0.286265,-0.533501 0.409712,-0.962319 0.534554,-1.570228 0.132858,-0.532225 0.220313,-1.116027 0.20046,-1.703854 -0.08158,-0.426273 -0.117696,-0.881523 -0.16705,-1.32671 -0.09089,-0.473708 -0.06514,-0.980177 -0.20046,-1.446236 -0.109039,-0.464322 -0.144884,-1.00041 -0.3341,-1.436594 -0.07929,-0.287736 -0.187044,-0.573338 -0.30069,-0.868648 -0.08851,-0.300924 -0.240305,-0.575634 -0.26728,-0.902047 -0.169801,-0.367964 -0.123693,-0.767269 -0.26728,-1.135914 -0.05863,-0.643493 -0.0039,-1.325122 -0.06682,-1.975827 0.02052,-0.393343 0.184288,-0.67581 0.26728,-1.03098 0.110056,-0.338746 0.272407,-0.755366 0.30069,-1.169325 0.09479,-0.462062 0.10648,-1.001185 -0.06682,-1.436586 -0.03972,-0.254148 -0.343873,-0.608216 -0.467586,-0.65868 -0.144405,-0.225319 -0.496925,-0.317696 -0.73517,-0.477246 -0.248318,-0.1736 -0.560651,-0.410453 -0.768414,-0.668186 -0.189571,-0.173885 -0.428309,-0.474847 -0.701596,-0.735004 -0.178774,-0.19327 -0.481962,-0.345977 -0.73502,-0.50115 -0.253342,-0.08617 -0.473302,-0.238982 -0.63479,-0.3341 -0.224128,-0.09819 -0.49745,-0.246822 -0.66819,-0.3341 -0.340941,-0.181637 -0.746907,-0.193258 -1.154974,-0.23387 -0.358397,-0.0039 -0.908602,-0.04825 -0.983219,0.26728 -0.108926,-0.04358 0.07422,0.198234 -0.05807,0.157604 z"
       style="fill:#f9d49b;fill-opacity:1;stroke:none;stroke-width:0.26458332px;stroke-linecap:butt;stroke-linejoin:miter;stroke-opacity:1" />
    <path
       id="path4559"
       d="m 48.977139,35.409949 c -0.161324,0.193708 -0.187693,0.494332 -0.29577,0.603932 -0.06503,0.154036 -0.162682,0.34499 -0.27219,0.565404 -0.09555,0.17404 -0.197671,0.341578 -0.26728,0.56797 -0.113958,0.23458 -0.255517,0.48742 -0.298964,0.705044 -0.08615,0.155636 -0.183295,0.349522 -0.269006,0.531103 -0.0806,0.211051 -0.235281,0.402249 -0.334096,0.567947 -0.159234,0.163642 -0.176239,0.190759 -0.367507,0.367497 -0.154016,0.08948 -0.438811,0.09236 -0.634771,0.03341 -0.316284,-0.05634 -0.628691,-0.120591 -0.935459,-0.20046 -0.194218,-0.08006 -0.359153,-0.187481 -0.534547,-0.23387 -0.11293,-0.137176 -0.336376,-0.0075 -0.467734,-0.10023 -0.185277,-0.03683 -0.366987,-0.08024 -0.501133,-0.16705 -0.36618,-0.02815 -0.717269,-0.09332 -1.039051,-0.16705 -0.165423,-0.04966 -0.364682,-0.119994 -0.605863,-0.10023 -0.220937,0.01283 -0.465681,-0.04214 -0.647364,0.07184 -0.181113,0.07158 -0.353939,0.153533 -0.480673,0.295675 -0.139477,0.09233 -0.238012,0.510147 -0.08352,0.66819 0.0691,0.182365 0.274776,0.178844 0.584665,0.167054 0.329782,-0.01122 -0.194519,0.391514 -0.400913,0.56796 -0.1704,0.04184 -0.150814,0.36282 -10e-6,0.400907 0.129641,0.123003 0.524976,0.03413 0.467731,0.3254 -0.0081,0.282451 -0.0681,0.510473 -0.16705,0.71028 -0.102356,0.226404 -0.03791,0.492202 0.06708,0.585138 0.212181,0.0601 0.515652,-0.07421 0.76815,-0.08399 0.316597,-0.07196 0.647001,-0.143269 0.968876,-0.23387 0.274236,-0.09023 0.55608,-0.162051 0.851793,-0.20046 0.194441,0.02167 0.351542,-0.04898 0.542694,-0.03341 0.176201,-0.02734 0.355402,-0.04149 0.54649,-0.03506 0.222217,0.07035 0.488373,0.01975 0.731739,0.03506 0.334792,0.06692 0.688173,0.0898 0.993846,0.13364 0.281871,-0.03117 0.551764,0.09051 0.811797,0.0022 0.151968,-0.07885 0.359722,-0.122917 0.432756,-0.26947 0.255789,-0.08967 0.493115,-0.480031 0.835237,-0.56796 0.223251,-0.178803 0.303943,-0.302928 0.501147,-0.467737 0.13306,-0.06111 0.361738,-0.241909 0.50115,-0.30068 0.04261,-0.0745 0.235437,-0.208767 0.33409,-0.26728 0.188906,-0.187471 0.278064,-0.211184 0.400914,-0.434324 0.123572,-0.144263 0.187865,-0.257968 0.233937,-0.446768 0.07282,-0.290697 0.02088,-0.602598 -0.03348,-0.889601 -0.177503,-0.302204 -0.252307,-0.620308 -0.534554,-0.868636 -0.198732,-0.215129 -0.304554,-0.402047 -0.515968,-0.564366 -0.02856,-0.07744 -0.267605,-0.2283 -0.473653,-0.367717 -0.0056,-0.06865 -0.223073,-0.163286 -0.246534,-0.304051 -0.06329,-0.158311 -0.125627,-0.310626 -0.16705,-0.467738 4e-5,-0.04451 -7.6e-5,-0.08922 5.2e-5,-0.133625 z"
       style="fill:#e9da48;fill-opacity:1;stroke:none;stroke-width:0.26499999;stroke-linecap:butt;stroke-linejoin:miter;stroke-miterlimit:4;stroke-dasharray:none;stroke-opacity:1" />
    <path
       id="path4564"
       d="m 69.865665,13.210581 c -0.415644,0.152789 -1.253481,0.806 -1.879072,1.0184 -0.706159,0.380494 -1.004659,1.017315 -1.681661,1.408194 -0.325056,0.103487 -1.014466,0.04223 -1.149037,0.30717 -0.182871,0.22289 -0.446784,0.628837 -0.216662,0.778205 0.242596,0.138397 1.183007,0.444517 1.443722,0.646938 0.332759,0.202487 0.624611,0.353455 0.93548,0.56797 0.351342,0.139085 0.686168,0.323883 0.93548,0.50115 0.258673,0.110153 0.358158,0.241054 0.60137,0.3341 0.182391,0.186766 0.395404,0.289137 0.50115,0.46774 0.130214,0.09017 0.294376,0.28321 0.386088,0.404506 0.16943,0.237856 0.287788,0.380323 0.549382,0.597786 0.207794,0.09773 0.349631,0.286754 0.60138,0.40092 0.246331,0.15528 0.30217,0.382236 0.499268,0.530969 0.109195,0.09023 0.26922,0.256377 0.335977,0.471327 0.179484,0.199059 0.310103,0.471848 0.501145,0.63479 0.106602,0.274543 0.287727,0.692571 0.3341,1.002288 0.125115,0.379964 0.324118,0.688624 0.634784,1.069108 0.174658,0.330683 0.411236,0.53813 0.467737,0.935464 0.222722,0.603941 0.286414,1.313259 0.50115,1.937736 0.120617,0.775274 0.133075,1.616935 0.03341,2.415797 -0.07056,0.6934 -0.142835,1.414862 -0.06682,2.127815 -0.07751,0.592552 -0.01754,1.198104 -0.26728,1.737258 0.0069,0.635731 -0.372917,1.093872 -0.46774,1.670474 -0.201623,0.372598 -0.27767,0.826847 -0.50115,1.169341 -0.138648,0.390651 -0.205499,0.833959 -0.16705,1.336362 0.01231,0.322955 0.09079,0.612802 0.26728,0.768419 0.07069,0.201512 0.875204,1.583987 1.03568,1.737259 0.563369,0.170966 0.868471,0.23326 0.868471,-1.303577 0.427737,-0.170035 1.333886,-0.382272 1.637155,-0.668226 0.192124,-0.248457 0.232708,-0.623248 0.367597,-0.934782 0.191522,-0.350269 0.402884,-0.776487 0.56797,-1.16933 0.241465,-0.361972 0.371379,-0.451996 0.801831,-0.701611 0.546834,-0.451233 1.147114,-0.609314 1.787393,-0.902065 0.406792,-0.154652 0.173771,-5.097082 0.651498,-5.211771 0.79635,-0.103156 -3.440081,-7.687997 -2.672686,-7.750834 -3.174511,-6.883813 -5.045349,-5.987468 -8.17734,-8.33529 z"
       style="fill:#d5ae54;fill-opacity:1;stroke:none;stroke-width:0.26458332px;stroke-linecap:butt;stroke-linejoin:miter;stroke-opacity:1" />
    <path
       id="path4562"
       d="m 76.405676,38.149461 c -0.197228,0.204868 0.189729,-0.18069 0,0 -0.109384,0.199159 -1.553268,0.386657 -1.603655,0.50952 -0.190398,0.248549 -0.335076,0.965755 -0.444688,1.230544 -0.134323,0.237403 0.32072,0.530773 0.511495,0.86587 -0.05129,0.279997 0.114524,0.434214 0.20046,0.634779 0.04554,0.170062 0.122787,0.277555 0.16705,0.400916 0.07168,0.190553 0.16105,0.329954 0.23387,0.53456 0.06158,0.169815 0.156329,0.325873 0.13364,0.530588 0.0018,0.290044 0.118653,0.525071 0.16705,0.805786 0.08279,0.204232 0.167418,0.432553 0.20045,0.735001 0.09007,0.165387 0.03508,0.357284 0.133636,0.534541 0.06569,0.224672 0.385031,0.122863 0.567969,-0.03341 0.1668,-0.08581 0.298835,-0.289388 0.400914,-0.434321 0.152291,-0.09135 0.249693,-0.184831 0.383898,-0.281922 0.197108,-0.172524 0.321596,-0.209245 0.518156,-0.302751 0.127737,-0.07056 0.37041,-0.08625 0.534536,-0.183748 0.219605,-0.04606 0.370535,-0.129984 0.567966,-0.20046 0.255108,-0.05776 0.497481,-0.219484 0.735017,-0.3341 0.230186,-0.05998 0.434807,-0.181625 0.668197,-0.23387 0.178556,-0.08273 0.313655,-0.152284 0.402008,-0.216389 0.0341,-0.124638 0.134992,-0.127813 0.199372,-0.217941 0.09052,-0.101564 0.174992,-0.229165 0.23387,-0.40092 0.0771,-0.0607 0.118014,-0.228351 0.128946,-0.347142 0.182456,-0.147665 0.130286,-0.478788 0.238564,-0.688547 0.05414,-0.164275 0.0071,-0.369014 0.06847,-0.531295 0.003,-0.204797 -0.02165,-0.42267 0.03176,-0.607977 0.04435,-0.175259 0.130386,-0.420684 0.16705,-0.597997 0.09803,-0.129329 0.157908,-0.313946 0.26728,-0.46774 0.06636,-0.04576 0.150856,-0.13893 0.16705,-0.23387 0.112734,-0.115159 0.155894,-0.163708 0.217173,-0.30069 0.183057,-0.163488 0.03835,-0.467744 -0.12722,-0.613448 -0.150885,-0.06977 -0.337729,-0.09908 -0.545874,-0.08815 -0.153823,0.06753 -0.332086,0.07444 -0.516801,0.06682 -0.274048,0.02388 -0.495155,0.141579 -0.764555,0.20046 -0.330906,0.02558 -0.650608,0.07698 -0.968858,0.13364 -0.176718,0.123637 -0.376824,0.118581 -0.601368,0.16705 -0.25789,0.02375 -0.494984,0.115946 -0.768403,0.20046 -0.235088,0.06522 -0.415803,0.214651 -0.687818,0.16705 -0.178803,0.0045 -0.315073,0.0052 -0.448096,-0.06682 -0.16058,0.0024 -0.325535,0.01279 -0.451787,-0.06573 -0.114053,-0.04233 -0.15172,-0.22488 -0.316633,-0.268367 z"
       style="fill:#e9da48;fill-opacity:1;stroke:none;stroke-width:0.26458332px;stroke-linecap:butt;stroke-linejoin:miter;stroke-opacity:1" />
    <path
       id="path6058"
       d="m 59.901769,32.837487 c 0.13749,-0.275477 -0.72608,0.416305 -0.984756,0.52414 -0.224867,0.19454 -0.458045,0.29443 -0.70873,0.47249 -0.411192,0.169233 -0.397817,0.333686 -0.850466,0.661483 -0.250192,0.115655 -0.38071,0.34384 -0.724555,0.574048 -0.40832,0.14464 -0.37198,0.323103 -0.740125,0.465442 -0.402831,0.243424 -0.778695,0.611584 -0.850462,1.086709 -0.109629,0.448468 -0.08569,1.108687 0.150813,1.471286 0.06791,0.307985 0.294856,0.705126 0.463437,1.032835 0.155784,0.387374 0.310879,0.754531 0.51974,1.13396 0.183899,0.36434 0.226246,0.768399 0.378,1.133965 0.131666,0.355671 -0.01963,0.848521 -0.0945,1.181185 -0.123521,0.327869 -0.294487,0.620035 -0.378,0.9922 -0.176969,0.460783 -0.311357,1.087067 -0.378,1.653637 -0.117211,0.409071 -0.240041,0.832894 -0.33075,1.275692 -0.174576,0.589511 -0.276061,1.231671 -0.381712,1.861458 -0.08201,0.551552 -0.160755,1.210316 -0.185288,1.832786 0.03554,0.520477 -0.130373,1.012346 0.004,1.522067 -0.04383,0.528132 0.24667,0.893916 0.610204,1.06759 0.567027,0.02402 0.802717,0.54532 1.346537,0.708712 0.558899,0.15651 1.047476,0.654454 1.630905,0.763685 0.589623,-0.01854 1.407034,-0.510022 1.998404,-0.527417 h 2.772674 c 0.689297,-0.143227 1.425581,-0.259292 2.102499,-0.378 0.459618,-0.09546 0.896519,-0.260772 1.299328,-0.47249 0.225583,-0.203835 0.558727,-0.4208 0.850482,-0.61422 0.345058,-0.156953 0.561031,-0.678564 0.66148,-0.944952 0.388346,-0.611321 -0.445422,-0.641872 -0.874078,-0.472472 -0.321728,0.13322 -0.623299,0.512203 -0.977521,0.566973 -0.560648,0.03399 -0.824114,0.109376 -1.384869,0.141753 -0.955949,0.09964 -1.972177,0.169175 -2.790795,0.09452 -0.606295,0.04614 -1.206305,0.134963 -1.818787,0.14175 -0.540307,-0.0017 -1.089411,0.01759 -1.603426,-0.04725 -0.364837,-0.173443 -0.759764,-0.336659 -1.086705,-0.496121 -0.290475,-0.303119 -1.262719,-0.490234 -1.393802,-1.021776 -0.0055,-0.715185 -0.04623,-1.019134 0.141738,-1.683235 0.169019,-0.481184 0.247148,-1.472004 0.425217,-2.019701 0.127874,-0.489728 0.434806,-1.131351 0.637852,-1.582815 0.148517,-0.375184 0.325542,-0.738559 0.42525,-1.13396 0.203125,-0.399811 0.262089,-0.859336 0.42525,-1.275701 0.09121,-0.504062 0.02832,-1.072495 0.04725,-1.606396 -0.128923,-0.498877 -0.233276,-0.945631 -0.42525,-1.417431 -0.14148,-0.334938 -0.309893,-0.559638 -0.42524,-0.89772 -0.158173,-0.259438 -0.737799,-1.030504 -0.489678,-1.340142 0.120771,-0.30202 0.167654,-0.426694 0.382048,-0.71111 0.264183,-0.368649 1.076221,-0.854522 1.076221,-0.854522 0.264772,-0.24802 0.486298,-0.379271 0.779613,-0.637846 0.366944,-0.249307 0.757515,-0.622935 1.110318,-0.708729 0.379554,-0.184431 0.653958,-0.257513 0.944969,-0.637856 0.131565,-0.354427 0.417259,-0.714369 0.273533,-1.096084 -0.102417,-0.415654 -0.577041,-0.175159 -1.005849,-0.01425 -0.240841,0.01279 -0.32415,0.162679 -0.574434,0.231821 z"
       style="fill:#daae00;fill-opacity:1;stroke:none;stroke-width:0.26458332px;stroke-linecap:butt;stroke-linejoin:miter;stroke-opacity:1" />
    <path
       id="path6061"
       d="m 54.050593,18.053571 c -0.786523,0.496473 -1.111398,1.464424 -1.917535,1.950032 -0.859852,0.636618 -1.800669,1.326688 -2.0875,2.418695 -0.479162,1.08417 -1.204603,2.058149 -1.492876,3.224154 -0.606414,1.033935 -0.407622,2.180041 -0.273962,3.296662 0.09511,1.075025 -0.04026,2.155825 0.11109,3.224027 0.188599,1.285797 0.889716,2.394017 1.463293,3.530554 0.355383,1.085992 1.245599,1.883207 1.806179,2.862163 1.178105,0.937899 2.193137,2.06149 3.370683,2.995912 0.533488,0.556855 2.173017,1.078497 1.616508,-0.255635 -0.225272,-1.06552 -0.808353,-1.956153 -1.432443,-2.825972 -0.142168,-1.18919 -1.021372,-1.971599 -1.873151,-2.718125 -0.952263,-1.078004 -1.674012,-2.346185 -2.315552,-3.626615 -0.687992,-1.515447 -0.879507,-2.818266 -1.039733,-4.44614 -0.08907,-1.018529 0.08154,-2.461333 0.459027,-3.432288 0.450486,-2.141154 1.853449,-3.919478 3.271367,-5.520521 0.103766,-0.237652 0.698036,-0.430288 0.334605,-0.676903 z"
       style="fill:#985e1d;fill-opacity:1;stroke:none;stroke-width:0.26458332px;stroke-linecap:butt;stroke-linejoin:miter;stroke-opacity:1" />
    <path
       id="path6101"
       d="m 42.261858,42.091816 c -0.26009,0.161708 -0.145849,0.215301 0.100357,0.133525 0.272758,-0.01699 0.563347,0.04162 0.818516,-0.05008 0.246049,-0.03584 0.495683,-0.0565 0.751704,-0.05008 0.212765,-0.05883 0.447608,-0.01182 0.651437,-0.06678 0.21565,5.5e-4 0.418099,-0.05484 0.634744,-0.05008 0.182677,-0.02682 0.373612,-0.0186 0.551248,-0.06678 0.256625,-0.04557 0.504203,-0.119688 0.774499,-0.10015 0.191076,-0.0066 0.381098,-0.03716 0.57856,-0.03339 0.254458,-0.05297 0.490895,-0.0671 0.718246,-0.15027 0.159185,-0.04031 0.386214,-0.06921 0.4677,-0.16699 0.160286,-0.105168 0.309783,-0.313235 0.467664,-0.450977 0.147461,-0.213193 0.340858,-0.403757 0.53448,-0.5846 0.18515,-0.176458 0.348418,-0.360912 0.55213,-0.516859 0.138989,-0.116361 0.321497,0.07681 0.450336,-0.05151 0.1132,-0.149932 0.318703,-0.301302 0.400914,-0.434324 0.0478,-0.116313 0.330783,-0.621185 0.350331,-0.767681 0.02478,-0.218631 -0.290296,-0.471412 -0.434304,-0.634692 -0.09775,-0.09845 -0.320172,-0.587468 -0.467604,-0.5011 -0.161955,0.08537 -0.239219,0.384857 -0.368076,0.465478 -0.184078,0.116974 -0.223447,0.535474 -0.417621,0.632917 -0.198719,0.411845 -0.513375,0.709415 -0.742466,1.04767 -0.01794,0.141507 -0.13656,0.304291 -0.225389,0.370976 -0.03548,0.07838 -0.187269,0.240112 -0.233891,0.271946 -0.06701,0.09571 -0.133451,0.148807 -0.191074,0.198629 -0.112331,0.22009 -0.244749,0.323579 -0.426686,0.352438 -0.07499,0.101328 -0.211061,0.06523 -0.38413,0.100143 -0.257505,0.07985 -0.527317,0.104263 -0.785097,0.16698 -0.187643,0.0085 -0.367116,-0.0027 -0.51778,-0.08348 -0.226662,-0.0273 -0.441449,-0.07237 -0.672713,-0.08346 H 44.18349 c -0.160237,0.04096 -0.38884,0.0787 -0.56791,0.13355 -0.251324,0.03305 -0.40538,0.116045 -0.66811,0.13355 -0.178065,0.0029 -0.35968,0.02466 -0.517773,0.08347 -0.187967,0.0037 -0.351651,0.08242 -0.503376,0.186889 -0.09965,0.04036 -0.151095,0.118792 -0.231431,0.197171 -0.04504,0.110877 -0.21808,0.164846 -0.23381,0.23378 -0.08751,0.0665 -0.04113,0.19732 0.03263,0.218167 0.13818,0.06933 0.323297,0.05291 0.489703,0.03229 0.109329,-0.0055 0.27397,0.0095 0.278446,-0.116287 z"
       style="fill:#8e7e0f;fill-opacity:1;stroke:none;stroke-width:0.26458332px;stroke-linecap:butt;stroke-linejoin:miter;stroke-opacity:1" />
    <path
       id="path6104"
       d="m 67.955815,37.024254 c -0.123346,0.04098 -0.250309,0.07236 -0.370033,0.122947 -0.01027,0.0043 0.005,0.02344 0,0.03341 -0.07604,0.07604 -0.0088,-0.0069 -0.03341,0.06682 -0.08067,0.241994 0.0096,-0.05267 -0.06682,0.100227 -0.005,0.0099 0.005,0.02344 0,0.03341 -0.007,0.01408 -0.02638,0.01931 -0.03341,0.03341 -0.005,0.01 0.005,0.02344 0,0.03341 -0.007,0.01408 -0.02635,0.01931 -0.03341,0.03341 -0.005,0.0099 0.0079,0.02553 0,0.03341 -0.0079,0.0079 -0.02553,-0.0079 -0.03341,0 -0.0079,0.0079 0.005,0.02344 0,0.03341 -0.007,0.01408 -0.02635,0.01931 -0.03341,0.03341 -0.005,0.01 0.005,0.02344 0,0.03341 -0.007,0.01408 -0.02635,0.01932 -0.03341,0.03341 -0.005,0.0099 0.005,0.02344 0,0.03341 -0.007,0.01408 -0.02638,0.01931 -0.03341,0.03341 -0.0099,0.01992 0.0099,0.04689 0,0.06681 -0.007,0.01408 -0.02635,0.01931 -0.03341,0.03341 -0.0099,0.01992 0.0099,0.0469 0,0.06682 -0.007,0.01408 -0.02635,0.01931 -0.03341,0.03341 -0.01336,0.02673 0.01336,0.0735 0,0.100227 -0.007,0.01407 -0.02635,0.01931 -0.03341,0.03341 -0.005,0.0099 0.0035,0.02283 0,0.03341 -0.08067,0.241991 0.0096,-0.05267 -0.06682,0.100225 -0.005,0.01 0.005,0.02344 0,0.03341 -0.007,0.01407 -0.02638,0.01931 -0.03341,0.03341 -0.005,0.0099 0.005,0.02344 0,0.03341 -0.007,0.01408 -0.02843,0.01847 -0.03341,0.03341 -0.007,0.02114 0,0.04455 0,0.06682 0,0.01114 0.005,0.02344 0,0.03341 -0.007,0.01408 -0.02635,0.01931 -0.03341,0.03341 -0.0099,0.01971 0.0077,0.07725 0,0.100226 -0.0079,0.02363 -0.02553,0.04319 -0.03341,0.06682 -0.0072,0.02164 0,0.139692 0,0.167045 0,0.06681 0,0.133633 0,0.200451 0,0.01114 0,0.02228 0,0.03341 0,0.01114 0.005,0.02344 0,0.03341 -0.007,0.01408 -0.02635,0.01931 -0.03341,0.03341 -0.0051,0.01016 0,0.08518 0,0.100224 0,0.07835 0.0079,-0.01574 -0.03341,0.06682 -0.0051,0.01016 0,0.08518 0,0.100227 0,0.06682 0,0.133635 0,0.200451 0,0.222726 0,0.445449 0,0.668176 0,0.133633 0,0.267268 0,0.400902 0,0.02323 0.006,0.154963 0,0.167044 -0.007,0.01408 -0.02635,0.01931 -0.03341,0.03341 -0.005,0.0099 0,0.02228 0,0.03341 0,0.01114 0,0.02228 0,0.03341 0,0.06682 0,0.133633 0,0.200451 0,0.01114 0,0.02228 0,0.03341 0,0.01114 0.005,0.02344 0,0.03341 -0.007,0.01408 -0.02635,0.01931 -0.03341,0.03341 -0.0013,0.0029 -0.0013,0.130786 0,0.133633 0.007,0.01408 0.02635,0.01931 0.03341,0.03341 0.0044,0.0088 0,0.116165 0,0.133636 0,0.02368 -0.0043,0.191815 0,0.200451 0.007,0.01407 0.02635,0.01931 0.03341,0.03341 0.0099,0.01992 -0.01574,0.05107 0,0.06682 0.0079,0.0079 0.02553,-0.0079 0.03341,0 0.01574,0.01574 -0.01574,0.05107 0,0.06682 0.0079,0.0079 0.02553,-0.0079 0.03341,0 0.0079,0.0079 -0.0079,0.02553 0,0.03341 0.02228,0.02228 0.04454,-0.02228 0.06682,0 0.0079,0.0079 -0.0079,0.02553 0,0.03341 0.0079,0.0079 0.02228,0 0.03341,0 0.01114,0 0.02553,-0.0079 0.03341,0 0.0079,0.0079 -0.0079,0.02553 0,0.03341 0.008,0.008 0.125595,-0.008 0.133633,0 0.0079,0.0079 -0.0079,0.02553 0,0.03341 0.0079,0.0079 0.02228,0 0.03341,0 0.01114,0 0.02228,0 0.03341,0 0.06682,0 0.133636,0 0.200453,0 0.01114,0 0.02228,0 0.03341,0 0.01114,0 0.02344,0.005 0.03341,0 0.01408,-0.007 0.01932,-0.02635 0.03341,-0.03341 0.01487,-0.0074 0.118356,0.0051 0.133635,0 0.01495,-0.005 0.01931,-0.02635 0.03341,-0.03341 0.0099,-0.005 0.02228,0 0.03341,0 0.02228,0 0.04569,0.007 0.06682,0 0.01495,-0.005 0.01932,-0.02635 0.03341,-0.03341 0.0099,-0.005 0.02344,0.005 0.03341,0 0.01408,-0.007 0.01932,-0.02635 0.03341,-0.03341 0.0099,-0.005 0.02344,0.005 0.03341,0 0.01408,-0.007 0.01931,-0.02635 0.03341,-0.03341 0.01992,-0.0099 0.04569,0.007 0.06682,0 0.121116,-0.04037 0.02379,-0.01585 0.100227,-0.06682 0.02072,-0.01381 0.0461,-0.0196 0.06682,-0.03341 0.0131,-0.0087 0.01931,-0.02635 0.03341,-0.03341 0.0099,-0.005 0.02344,0.005 0.03341,0 0.01408,-0.007 0.01931,-0.02635 0.03341,-0.03341 0.0099,-0.005 0.02553,0.0079 0.03341,0 0.0079,-0.0079 -0.0079,-0.02553 0,-0.03341 0.01574,-0.01574 0.05107,0.01574 0.06682,0 0.0079,-0.0079 -0.0079,-0.02553 0,-0.03341 0.0079,-0.0079 0.02344,0.005 0.03341,0 0.02817,-0.01407 0.03865,-0.05273 0.06682,-0.06682 0.0099,-0.005 0.02344,0.005 0.03341,0 0.03288,-0.01643 0.100759,-0.117198 0.133634,-0.133636 0.0099,-0.005 0.02553,0.0079 0.03341,0 0.0079,-0.0079 -0.0079,-0.02553 0,-0.03341 0.0079,-0.0079 0.02344,0.005 0.03341,0 0.02817,-0.01408 0.03865,-0.05273 0.06682,-0.06682 0.0099,-0.005 0.02344,0.005 0.03341,0 0.03288,-0.01643 0.100759,-0.117198 0.133633,-0.133636 0.01,-0.005 0.02553,0.0079 0.03341,0 0.0079,-0.0079 -0.005,-0.02344 0,-0.03341 0.01408,-0.02817 0.05273,-0.03865 0.06682,-0.06682 0.005,-0.0099 -0.0079,-0.02553 0,-0.03341 0.06912,-0.06912 -0.0027,0.105632 0.06682,-0.03341 0.005,-0.0099 -0.005,-0.02344 0,-0.03341 0.007,-0.01408 0.02635,-0.01931 0.03341,-0.03341 0.005,-0.01 -0.0079,-0.02553 0,-0.03341 0.0079,-0.0079 0.02553,0.0079 0.03341,0 0.0079,-0.0079 -0.0079,-0.02553 0,-0.03341 0.0079,-0.0079 0.02553,0.0079 0.03341,0 0.0079,-0.0079 -0.005,-0.02344 0,-0.03341 0.110802,-0.110802 -0.01574,0.0315 0.03341,-0.06682 0.007,-0.01408 0.02228,-0.02228 0.03341,-0.03341 0.02609,-0.02609 0.081,-0.0714 0.100224,-0.100226 0.01381,-0.02072 0.0196,-0.0461 0.03341,-0.06682 0.0087,-0.0131 0.02635,-0.01931 0.03341,-0.03341 0.005,-0.01 -0.0079,-0.02553 0,-0.03341 0.0079,-0.0079 0.02553,0.0079 0.03341,0 0.01574,-0.01574 -0.01574,-0.05107 0,-0.06682 0.0079,-0.0079 0.02344,0.005 0.03341,0 0.07387,-0.03693 0.01037,-0.02074 0.03341,-0.06682 0.007,-0.01408 0.02635,-0.01931 0.03341,-0.03341 0.005,-0.0099 -0.0079,-0.02553 0,-0.03341 0.0079,-0.0079 0.02553,0.0079 0.03341,0 0.01574,-0.01574 -0.01574,-0.05107 0,-0.06681 0.0079,-0.0079 0.02553,0.0079 0.03341,0 0.0079,-0.0079 -0.0079,-0.02553 0,-0.03341 0.0079,-0.0079 0.02553,0.0079 0.03341,0 0.0079,-0.0079 -0.0079,-0.02553 0,-0.03341 0.0079,-0.0079 0.02553,0.0079 0.03341,0 0.0079,-0.0079 -0.005,-0.02344 0,-0.03341 0.01643,-0.03288 0.117197,-0.100761 0.133635,-0.133636 0.02305,-0.04608 -0.04046,-0.02988 0.03341,-0.06682 0.0099,-0.005 0.02553,0.0079 0.03341,0 0.0079,-0.0079 -0.0079,-0.02553 0,-0.03341 0.0079,-0.0079 0.02553,0.0079 0.03341,0 0.0079,-0.0079 -0.0079,-0.02553 0,-0.03341 0.0079,-0.0079 0.02553,0.0079 0.03341,0 0.0079,-0.0079 -0.0079,-0.02553 0,-0.03341 0.0079,-0.0079 0.02553,0.0079 0.03341,0 0.01574,-0.01574 -0.01574,-0.05107 0,-0.06682 0.0079,-0.0079 0.02553,0.0079 0.03341,0 0.01574,-0.01574 -0.01574,-0.05107 0,-0.06682 0.0079,-0.0079 0.02553,0.0079 0.03341,0 0.0079,-0.0079 -0.0079,-0.02553 0,-0.03341 0.0079,-0.0079 0.02553,0.0079 0.03341,0 0.0068,-0.0068 -0.0066,-0.08698 0,-0.100226 0.007,-0.01408 0.02635,-0.01931 0.03341,-0.03341 0.005,-0.0099 0,-0.02228 0,-0.03341 0,-0.01114 0.0079,-0.02553 0,-0.03341 -0.0079,-0.0079 -0.02344,0.005 -0.03341,0 -0.01408,-0.007 -0.01931,-0.02635 -0.03341,-0.03341 -0.0099,-0.005 -0.02553,0.0079 -0.03341,0 -0.0079,-0.0079 0.0079,-0.02553 0,-0.03341 -0.0079,-0.0079 -0.02553,0.0079 -0.03341,0 -0.0079,-0.0079 0.005,-0.02344 0,-0.03341 -0.007,-0.01408 -0.02228,-0.02228 -0.03341,-0.03341 -0.01114,-0.01114 -0.01932,-0.02635 -0.03341,-0.03341 -0.01,-0.005 -0.02553,0.0079 -0.03341,0 -0.0079,-0.0079 0.0079,-0.02553 0,-0.03341 -0.01669,-0.01669 -0.08352,0.01669 -0.100227,0 -0.0079,-0.0079 0.0079,-0.02553 0,-0.03341 -0.0016,-0.0016 -0.151291,0 -0.167044,0 -0.01114,0 -0.02553,-0.0079 -0.03341,0 -0.0079,0.0079 0.0079,0.02553 0,0.03341 -0.008,0.008 -0.125597,-0.008 -0.133635,0 -0.0079,0.0079 0.0079,0.02553 0,0.03341 -0.0068,0.0068 -0.08698,-0.0066 -0.100227,0 -0.01408,0.007 -0.01932,0.02635 -0.03341,0.03341 -0.01992,0.01 -0.05107,-0.01574 -0.06681,0 -0.0079,0.0079 0.0079,0.02553 0,0.03341 -0.01574,0.01574 -0.0469,-0.01 -0.06682,0 -0.01408,0.007 -0.01932,0.02635 -0.03341,0.03341 -0.0099,0.005 -0.02344,-0.005 -0.03341,0 -0.01408,0.007 -0.01931,0.02635 -0.03341,0.03341 -0.0099,0.005 -0.02228,0 -0.03341,0 -0.02368,0 -0.191815,-0.0043 -0.200451,0 -0.01408,0.007 -0.01931,0.02635 -0.03341,0.03341 -0.01016,0.0051 -0.08518,0 -0.100227,0 -0.08909,0 -0.178181,0 -0.267269,0 -0.02323,0 -0.154961,0.006 -0.167044,0 -0.01408,-0.007 -0.01931,-0.02635 -0.03341,-0.03341 -0.0099,-0.005 -0.02344,0.005 -0.03341,0 -0.01408,-0.007 -0.01932,-0.02635 -0.03341,-0.03341 -0.0099,-0.005 -0.02553,0.0079 -0.03341,0 -0.0079,-0.0079 0.0079,-0.02553 0,-0.03341 -0.01574,-0.01574 -0.05107,0.01574 -0.06682,0 -0.0079,-0.0079 0.005,-0.02344 0,-0.03341 -0.06952,-0.139039 0.0024,0.03572 -0.06682,-0.03341 -0.0079,-0.0079 0.0079,-0.02553 0,-0.03341 -0.06912,-0.06912 0.0027,0.105632 -0.06682,-0.03341 -0.005,-0.0099 0.0079,-0.02553 0,-0.03341 -0.0079,-0.0079 -0.02553,0.0079 -0.03341,0 -0.01574,-0.01574 0.01574,-0.05107 0,-0.06681 -0.0079,-0.0079 -0.02553,0.0079 -0.03341,0 -0.01574,-0.01574 0.01574,-0.05107 0,-0.06682 -0.0079,-0.0079 -0.02553,0.0079 -0.03341,0 -0.0079,-0.0079 0.005,-0.02344 0,-0.03341 -0.01408,-0.02817 -0.05273,-0.03864 -0.06681,-0.06682 -0.0099,-0.01992 0.0099,-0.04689 0,-0.06682 -0.007,-0.01408 -0.02635,-0.01932 -0.03341,-0.03341 -0.0034,-0.0069 -0.0047,-0.09551 0,-0.100224 0.0079,-0.0079 0.02553,0.0079 0.03341,0 0.0092,-0.0091 -0.009,-0.115512 0,-0.133636 0.007,-0.01408 0.02635,-0.01931 0.03341,-0.03341 0.0099,-0.01992 -0.01574,-0.05107 0,-0.06682 0.0079,-0.0079 0.02553,0.0079 0.03341,0 0.01574,-0.01574 -0.0099,-0.04689 0,-0.06682 0.007,-0.01408 0.02635,-0.01931 0.03341,-0.03341 0.0066,-0.01326 -0.0068,-0.0934 0,-0.100227 0.0079,-0.0079 0.02553,0.0079 0.03341,0 0.0079,-0.0079 0,-0.02228 0,-0.03341 0,-0.01114 0,-0.02228 0,-0.03341 0,-0.01228 -0.0013,-0.132289 0,-0.133636 0.0079,-0.0079 0.02553,0.0079 0.03341,0 0.008,-0.008 -0.008,-0.125595 0,-0.133633 0.0079,-0.0079 0.02553,0.0079 0.03341,0 0.0016,-0.0016 0,-0.151292 0,-0.167045 0,-0.05568 0,-0.11136 0,-0.167042 0,-0.01114 0.0079,-0.02553 0,-0.03341 -0.0079,-0.0079 -0.02553,0.0079 -0.03341,0 -0.01669,-0.01669 0.01669,-0.08352 0,-0.100227 -0.0079,-0.0079 -0.02553,0.0079 -0.03341,0 -0.0016,-0.0016 0,-0.151291 0,-0.167042 0,-0.01114 0.0079,-0.02553 0,-0.03341 -0.0079,-0.0079 -0.02553,0.0079 -0.03341,0 -0.0011,-0.0011 0,-0.09213 0,-0.100227 0,-0.0496 0.0098,-0.189764 -0.06428,-0.189764 -0.06982,0 -0.1286,0.179475 -0.169582,0.122947 -0.04098,-0.05653 0.113054,-0.08196 0.169582,-0.122947"
       style="fill:#985e1d;fill-opacity:1;stroke:none;stroke-width:0.26458332px;stroke-linecap:butt;stroke-linejoin:miter;stroke-opacity:1" />
    <path
       id="path6115"
       d="m 46.212572,40.521478 c 0,0 -0.57318,-0.387454 -0.860069,-0.480093 -0.08859,-0.03937 -0.297797,-0.03181 -0.388332,-0.06681 -0.334071,2.3e-5 -0.580571,-0.02091 -0.914557,-0.02088 -0.09792,0.04555 -0.219809,-0.01393 -0.317371,0.0334 -0.09095,-0.0046 -0.179086,0.0027 -0.26565,0.01669 -0.08371,-0.0096 -0.149901,0.02305 -0.232251,0.01669 -0.07695,0.0035 -0.149646,0.02495 -0.22936,0.0167 -0.119625,-0.0029 -0.224678,0.03074 -0.34177,0.03339 -0.09667,-0.0053 -0.146725,0.02411 -0.243381,0.03335 -0.103903,0.03564 -0.266718,0.07005 -0.391309,0.100187 -0.11974,-0.01134 -0.217234,0.03741 -0.336719,0.03434 -0.15474,0.0049 -0.31606,0.15246 -0.439908,0.232841 -0.125942,0.08371 -0.227582,0.139811 -0.25886,0.20037 0.01118,0.05876 0.175574,0.09673 0.26106,0.11688 0.09857,0.01221 0.185315,-0.03051 0.283957,-0.0167 0.114071,-0.0094 0.220051,0.04183 0.331639,0.008 0.129851,-0.0045 0.252315,-0.05232 0.380477,-0.05805 0.130222,-0.0022 0.226101,-0.03464 0.34623,-0.05009 0.124291,-0.05712 0.393321,-0.111674 0.525788,-0.144944 0.174593,-0.0072 0.224178,0.01872 0.390934,-0.0064 0.111874,0.0025 0.224522,4.37e-4 0.336003,0.0011 0.0911,0.03152 0.2422,0.05831 0.36308,0.06724 0.107922,0.0061 0.313309,0.0078 0.313309,0.0078 0.443831,0.05751 0.78543,-0.02339 1.220472,-0.0057 0.09886,-0.0774 0.133046,0.02507 0.245251,-0.06936 z"
       style="fill:#8e7e0f;fill-opacity:1;stroke:none;stroke-width:0.26458332px;stroke-linecap:butt;stroke-linejoin:miter;stroke-opacity:1" />
    <path
       id="path6119"
       d="m 40.942209,39.419072 c 0.03061,5.29e-4 0.06122,0.0013 0.09183,0.0019 0.0019,-0.0019 0.0034,-0.0047 0.0059,-0.0059 0.0035,-0.0019 0.0083,0.0019 0.0118,0 0.0024,-0.0013 0.0034,-0.0047 0.0059,-0.0059 0.0024,-0.0011 0.01651,0.0013 0.01773,0 0.0013,-0.0013 -0.0013,-0.0045 0,-0.0059 0.0028,-0.0028 0.009,0.0028 0.0118,0 0.0013,-0.0013 -0.0013,-0.0045 0,-0.0059 0.0028,-0.0028 0.0083,0.0019 0.0118,0 0.0024,-0.0013 0.0034,-0.0047 0.0059,-0.0059 0.0035,-0.0019 0.009,0.0028 0.01183,0 0.0013,-0.0013 -0.0013,-0.0045 0,-0.0059 0.0013,-0.0013 0.0222,0.0013 0.02363,0 0.0013,-0.0013 -0.0013,-0.0045 0,-0.0059 0.0013,-0.0013 0.0039,0 0.0059,0 0.0053,0 0.02582,0.0013 0.02953,0 0.0042,-0.0013 0.0076,-0.0045 0.0118,-0.0059 0.0048,-0.0016 0.01984,0.0019 0.02363,0 0.0024,-0.0013 0.0034,-0.0047 0.0059,-0.0059 0.0032,-0.0016 0.02201,0.0016 0.02363,0 0.0013,-0.0013 -0.0013,-0.0045 0,-0.0059 0.0016,-0.0016 0.02043,0.0016 0.02363,0 0.0024,-0.0013 0.0034,-0.0047 0.0059,-0.0059 0.0037,-0.0019 0.01992,0.0019 0.02363,0 0.0024,-0.0013 0.0039,-0.0039 0.0059,-0.0059 0.0039,0 0.0081,0.0013 0.0118,0 0.0026,-7.93e-4 0.0039,-0.0039 0.0059,-0.0059 0.0039,-0.0019 0.0075,-0.0048 0.01183,-0.0059 0.0038,-0.0011 0.008,0.0011 0.0118,0 0.0038,-0.0011 0.03167,-0.01521 0.03544,-0.01773 0.0024,-0.0016 0.0033,-0.005 0.0059,-0.0059 0.02689,0 2.65e-4,0.0028 0.01773,-0.0059 0.0019,-7.93e-4 0.0045,0.0013 0.0059,0 0.0013,-0.0013 -0.0013,-0.0045 0,-0.0059 2.64e-4,-2.64e-4 0.02674,0 0.02953,0 0.01386,0 -0.0028,0.0013 0.01183,-0.0059 0.0019,-7.94e-4 0.0039,0 0.0059,0 0.0039,0 0.0079,0 0.0118,0 0.0098,0 0.01969,0 0.02953,0 0.0039,0 0.0081,0.0013 0.0118,0 0.0026,-7.94e-4 0.0033,-0.005 0.0059,-0.0059 0.0037,-0.0013 0.0079,0 0.0118,0 0.0098,0 0.01969,0 0.02953,0 0.005,0 0.03915,-0.0011 0.04134,0 0.0024,0.0013 0.0034,0.0047 0.0059,0.0059 0.0019,7.94e-4 0.0039,0 0.0059,0 0.0057,0 0.03191,-0.0011 0.03544,0 0.0042,0.0013 0.0076,0.0045 0.01183,0.0059 0.0053,0.0019 0.01241,-0.0019 0.01773,0 0.0042,0.0013 0.0076,0.0045 0.0118,0.0059 0.0038,0.0013 0.02469,0 0.02953,0 0.0059,0 0.0118,0 0.01773,0 0.0039,0 0.008,7.94e-4 0.01183,0 0.0061,-0.0013 0.01161,-0.0047 0.01773,-0.0059 0.0077,-0.0016 0.01598,0.0019 0.02363,0 0.0043,-0.0011 0.0075,-0.0048 0.0118,-0.0059 0.0038,-0.0011 0.0079,0 0.0118,0 0.0098,0 0.01969,0 0.02953,0 0.0019,0 0.0042,7.94e-4 0.0059,0 0.0024,-0.0013 0.0034,-0.0047 0.0059,-0.0059 0.0016,-7.94e-4 0.03125,0 0.03544,0 0.0118,0 0.02363,0 0.03544,0 0.0039,0 0.0079,0 0.0118,0 0.0019,0 0.0042,7.94e-4 0.0059,0 0.0024,-0.0013 0.0034,-0.0047 0.0059,-0.0059 0.0037,-0.0019 0.0199,0.0019 0.02363,0 0.0024,-0.0013 0.0034,-0.0047 0.0059,-0.0059 0.0013,-5.29e-4 0.02222,0 0.02363,0 0.02164,0 0.04331,0 0.06496,0 0.0065,0 0.02572,0.0013 0.02953,0 0.0042,-0.0013 0.0075,-0.0048 0.0118,-0.0059 0.0057,-0.0013 0.01212,0.0019 0.01773,0 0.0042,-0.0013 0.0076,-0.0045 0.0118,-0.0059 0.0019,-5.29e-4 0.0039,0 0.0059,0 0.0039,-0.0019 0.0076,-0.0045 0.01183,-0.0059 0.0019,-5.29e-4 0.0039,0 0.0059,0 0.0069,0 0.02418,0.0013 0.02953,0 0.0043,-0.0011 0.0076,-0.0045 0.01183,-0.0059 0.0053,-0.0019 0.01241,0.0019 0.01773,0 0.0026,-7.94e-4 0.0033,-0.005 0.0059,-0.0059 0.0037,-0.0013 0.0079,0 0.01183,0 0.0019,0 0.0042,7.94e-4 0.0059,0 0.0024,-0.0013 0.0034,-0.0047 0.0059,-0.0059 0.0035,-0.0019 0.0083,0.0019 0.0118,0 0.0024,-0.0013 0.0034,-0.0047 0.0059,-0.0059 0.0035,-0.0019 0.0081,0.0013 0.01183,0 0.0042,-0.0013 0.0076,-0.0045 0.0118,-0.0059 0.0019,-5.29e-4 0.0042,7.93e-4 0.0059,0 0.0024,-0.0013 0.0033,-0.005 0.0059,-0.0059 0.0037,-0.0013 0.0081,0.0013 0.0118,0 0.0026,-7.94e-4 0.0034,-0.0047 0.0059,-0.0059 0.0035,-0.0019 0.0083,0.0019 0.0118,0 0.0024,-0.0013 0.0034,-0.0047 0.0059,-0.0059 0.0037,-0.0019 0.01992,0.0019 0.02363,0 0.0024,-0.0013 0.0034,-0.0047 0.0059,-0.0059 0.0019,-7.94e-4 0.0039,0 0.0059,0 0.0039,-0.0019 0.0081,-0.0035 0.0118,-0.0059 0.0024,-0.0016 0.0034,-0.0047 0.0059,-0.0059 0.0019,-7.93e-4 0.004,5.3e-4 0.0059,0 0.0042,-0.0013 0.0076,-0.0045 0.01183,-0.0059 0.0019,-5.29e-4 0.004,5.29e-4 0.0059,0 0.0042,-0.0013 0.0076,-0.0045 0.0118,-0.0059 0.0019,-5.29e-4 0.004,5.29e-4 0.0059,0 0.0042,-0.0013 0.0076,-0.0045 0.01183,-0.0059 0.0019,-5.29e-4 0.004,5.29e-4 0.0059,0 0.0042,-0.0013 0.0081,-0.0035 0.0118,-0.0059 0.0024,-0.0016 0.0033,-0.005 0.0059,-0.0059 0.0037,-0.0013 0.0079,0 0.0118,0 0.0019,0 0.0042,7.94e-4 0.0059,0 0.0024,-0.0013 0.0034,-0.0047 0.0059,-0.0059 0.0047,-0.0024 0.01299,0.0024 0.01773,0 0.0024,-0.0013 0.0034,-0.0047 0.0059,-0.0059 0.0035,-0.0019 0.0083,0.0019 0.01183,0 0.0024,-0.0013 0.0034,-0.0047 0.0059,-0.0059 0.0019,-7.94e-4 0.004,5.29e-4 0.0059,0 0.0042,-0.0013 0.0076,-0.0045 0.0118,-0.0059 0.0019,-5.3e-4 0.004,5.29e-4 0.0059,0 0.0042,-0.0013 0.0076,-0.0045 0.01183,-0.0059 0.0019,-5.29e-4 0.004,5.3e-4 0.0059,0 0.0084,-0.0028 0.01508,-0.0097 0.02363,-0.0118 0.0038,-0.0011 0.008,0.0011 0.01183,0 0.0043,-0.0011 0.0079,-0.0039 0.0118,-0.0059 0.0059,-0.0019 0.01162,-0.0047 0.01773,-0.0059 0.0039,-7.94e-4 0.008,0.0011 0.01183,0 0.0043,-0.0011 0.0077,-0.0043 0.0118,-0.0059 0.0058,-0.0024 0.01193,-0.0036 0.01773,-0.0059 0.0041,-0.0016 0.0075,-0.0048 0.01183,-0.0059 0.0038,-0.0011 0.0081,0.0013 0.0118,0 0.0026,-7.94e-4 0.0033,-0.005 0.0059,-0.0059 0.0037,-0.0013 0.0081,0.0013 0.0118,0 0.0026,-7.94e-4 0.0034,-0.0047 0.0059,-0.0059 0.0019,-7.94e-4 0.004,5.29e-4 0.0059,0 0.0042,-0.0013 0.0076,-0.0045 0.0118,-0.0059 0.0019,-5.29e-4 0.004,5.29e-4 0.0059,0 0.0042,-0.0013 0.0076,-0.0045 0.0118,-0.0059 0.0019,-5.29e-4 0.0042,7.94e-4 0.0059,0 0.0024,-0.0013 0.0034,-0.0047 0.0059,-0.0059 0.0033,-0.0016 0.03082,0.0016 0.03543,0 0.0026,-7.94e-4 0.0039,-0.0039 0.0059,-0.0059 0.0039,0 0.008,0.0011 0.0118,0 0.0043,-0.0011 0.0075,-0.0048 0.0118,-0.0059 0.04207,-0.0105 -0.02992,0.01789 0.02953,-0.0059 0.0041,-0.0016 0.0075,-0.0051 0.0118,-0.0059 0.0058,-0.0011 0.01193,0.0011 0.01773,0 0.0043,-7.94e-4 0.0077,-0.0043 0.0118,-0.0059 0.0058,-0.0024 0.01193,-0.0036 0.01773,-0.0059 0.0082,-0.0033 0.01508,-0.0097 0.02363,-0.0118 0.0038,-0.0011 0.008,0.0011 0.0118,0 0.0043,-0.0011 0.0076,-0.0045 0.0118,-0.0059 0.0019,-5.29e-4 0.004,5.29e-4 0.0059,0 0.0042,-0.0013 0.0076,-0.0045 0.0118,-0.0059 0.0041,-0.0013 0.01423,0.0019 0.01773,0 0.0024,-0.0013 0.0034,-0.0047 0.0059,-0.0059 0.0038,-0.0019 0.01886,0.0016 0.02363,0 0.03346,-0.01672 -0.0088,0.0021 0.02363,-0.0059 0.0043,-0.0011 0.0077,-0.0043 0.0118,-0.0059 0.01156,-0.0046 0.02363,-0.0079 0.03544,-0.0118 0.0059,-0.0019 0.01156,-0.0049 0.01773,-0.0059 0.0058,-0.0011 0.01193,0.0011 0.01773,0 0.03833,-0.0077 -0.01318,-0.0059 0.02363,-0.0059 0.004,0 0.03865,7.94e-4 0.04134,0 0.0026,-7.93e-4 0.0033,-0.005 0.0059,-0.0059 0.0071,-0.0024 0.02739,0.0021 0.03544,0 0.0043,-0.0011 0.0075,-0.0048 0.0118,-0.0059 0.0047,-0.0011 0.0293,0 0.03544,0 0.0039,0 0.0079,0 0.01183,0 0.0039,0 0.008,0.0011 0.0118,0 0.0043,-0.0011 0.0076,-0.0045 0.0118,-0.0059 0.0019,-5.29e-4 0.0039,0 0.0059,0 0.0039,0 0.0079,0 0.01183,0 0.0118,0 0.02363,0 0.03543,0 0.0039,0 0.008,0.0011 0.01183,0 0.0043,-0.0011 0.0075,-0.0048 0.0118,-0.0059 0.0093,-0.0024 0.02027,0.0024 0.02953,0 0.0043,-0.0011 0.0075,-0.0048 0.0118,-0.0059 0.0038,-0.0011 0.008,0.0011 0.0118,0 0.0043,-0.0011 0.0075,-0.0048 0.01183,-0.0059 0.0076,-0.0019 0.01598,0.0019 0.02363,0 0.0043,-0.0011 0.0076,-0.0045 0.0118,-0.0059 0.0049,-0.0016 0.01971,0.0019 0.02363,0 0.0024,-0.0013 0.0034,-0.0047 0.0059,-0.0059 0.0026,-0.0013 0.0272,0 0.02953,0 0.01773,0 0.03544,0 0.05315,0 0.0039,0 0.0079,0 0.0118,0 0.0039,0 0.008,0.0011 0.01183,0 0.0043,-0.0011 0.0076,-0.0045 0.0118,-0.0059 0.0049,-0.0016 0.01971,0.0019 0.02363,0 0.0024,-0.0013 0.0033,-0.005 0.0059,-0.0059 0.0053,-0.0037 0.01212,0.0019 0.01773,0 0.0042,-0.0013 0.0075,-0.0048 0.0118,-0.0059 0.0038,-0.0011 0.0081,0.0013 0.01183,0 0.0026,-7.94e-4 0.0039,-0.0039 0.0059,-0.0059 0.0039,-0.0019 0.0075,-0.0048 0.0118,-0.0059 0.0038,-0.0011 0.008,0.0011 0.0118,0 0.0043,-0.0011 0.0075,-0.0048 0.01183,-0.0059 0.0038,-0.0011 0.0081,0.0013 0.0118,0 0.0026,-7.93e-4 0.0034,-0.0047 0.0059,-0.0059 0.0019,-7.94e-4 0.0039,0 0.0059,0 0.0019,0 0.0039,0 0.0059,0 0.01183,0 0.02363,0 0.03543,0 0.01386,0 -0.0028,0.0013 0.01183,-0.0059 0.0019,-7.94e-4 0.0039,0 0.0059,0 0.0059,0 0.01212,-0.0019 0.01773,0 0.0026,7.94e-4 0.0033,0.005 0.0059,0.0059 0.0037,0.0013 0.008,-0.0011 0.01183,0 0.0043,0.0011 0.0075,0.0048 0.0118,0.0059 0.0038,0.0011 0.0079,0 0.0118,0 0.0039,0.0019 0.0076,0.0045 0.0118,0.0059 0.0019,5.29e-4 0.0042,-7.94e-4 0.0059,0 0.0024,0.0013 0.0034,0.0047 0.0059,0.0059 0.0035,0.0019 0.009,-0.0028 0.0118,0 0.0013,0.0013 -0.0013,0.0045 0,0.0059 0.0028,0.0028 0.009,-0.0028 0.0118,0 0.0013,0.0013 -0.0013,0.0045 0,0.0059 0.0013,0.0013 0.0045,-0.0013 0.0059,0 0.0013,0.0013 -7.94e-4,0.0042 0,0.0059 0.0035,0.0071 0.01418,0.01064 0.01773,0.01773 7.94e-4,0.0019 -7.94e-4,0.0042 0,0.0059 0.0013,0.0024 0.0047,0.0034 0.0059,0.0059 0.0019,0.0035 -0.0019,0.0083 0,0.0118 0.0013,0.0024 0.0047,0.0034 0.0059,0.0059 7.93e-4,0.0016 0,0.02638 0,0.02953 0,0.02167 0,0.04331 0,0.06497 0,0.0118 0,0.02363 0,0.03543 0,0.0019 0,0.0039 0,0.0059 0,0.0019 7.93e-4,0.0042 0,0.0059 -0.0013,0.0024 -0.0047,0.0034 -0.0059,0.0059 -0.0024,0.0047 0.0024,0.01299 0,0.01773 -0.0013,0.0024 -0.0039,0.0039 -0.0059,0.0059 -0.0019,0.0019 -0.0036,0.0044 -0.0059,0.0059 -0.0037,0.0024 -0.0087,0.0028 -0.01183,0.0059 -0.0031,0.0031 -0.0028,0.0087 -0.0059,0.0118 -0.0031,0.0031 -0.0083,0.0033 -0.0118,0.0059 -0.0044,0.0033 -0.0074,0.0085 -0.0118,0.0118 -0.0035,0.0026 -0.0079,0.0039 -0.01183,0.0059 -0.0079,0.0039 -0.01574,0.0079 -0.02363,0.0118 -0.0079,0.0039 -0.01545,0.0085 -0.02363,0.0118 -0.0058,0.0024 -0.01193,0.0036 -0.01773,0.0059 -0.0041,0.0016 -0.0077,0.0043 -0.0118,0.0059 -0.0058,0.0024 -0.01183,0.0039 -0.01773,0.0059 -0.0059,0.0019 -0.01159,0.0049 -0.01773,0.0059 -0.0058,0.0011 -0.01183,0 -0.01773,0 -0.0059,0.0019 -0.01161,0.0047 -0.01773,0.0059 -0.0039,7.93e-4 -0.0079,0 -0.0118,0 -0.0079,0 -0.01582,-0.0011 -0.02363,0 -0.0062,7.93e-4 -0.01156,0.0049 -0.01773,0.0059 -0.0058,0.0011 -0.01183,0 -0.01773,0 -0.01773,0 -0.03544,0 -0.05315,0 -0.0079,0 -0.0158,-0.0011 -0.02363,0 -0.008,0.0011 -0.01556,0.0049 -0.02363,0.0059 -0.0078,0.0011 -0.01582,-0.0011 -0.02363,0 -0.008,0.0011 -0.01556,0.0049 -0.02363,0.0059 -0.0078,0.0011 -0.01574,0 -0.02363,0 -0.0079,0.0019 -0.01556,0.0049 -0.02363,0.0059 -0.0078,0.0011 -0.01582,-0.0011 -0.02363,0 -0.01611,0.0021 -0.03118,0.0095 -0.04725,0.0118 -0.04633,0.0066 0.01617,-0.01053 -0.04134,0.0059 -0.01199,0.0034 -0.02315,0.0098 -0.03544,0.0118 -0.0058,0.0011 -0.01191,-0.0011 -0.01773,0 -0.0061,0.0011 -0.01161,0.0047 -0.01773,0.0059 -0.0039,7.93e-4 -0.0079,-7.94e-4 -0.0118,0 -0.0061,0.0013 -0.01161,0.0047 -0.01773,0.0059 -0.0039,7.94e-4 -0.0079,-7.94e-4 -0.0118,0 -0.0122,0.0024 -0.02323,0.0094 -0.03543,0.0118 -0.0039,7.94e-4 -0.008,-7.93e-4 -0.0118,0 -0.0122,0.0024 -0.02315,0.0098 -0.03543,0.0118 -0.0058,0.0011 -0.01191,-0.0011 -0.01773,0 -0.0061,0.0011 -0.01159,0.0049 -0.01773,0.0059 -0.0058,0.0011 -0.01188,-0.0011 -0.01773,0 -0.0061,0.0011 -0.01183,0.0039 -0.01773,0.0059 -0.0079,0.0019 -0.01558,0.0048 -0.02363,0.0059 -0.0058,7.94e-4 -0.01191,-0.0011 -0.01773,0 -0.0061,0.0011 -0.0118,0.0039 -0.01773,0.0059 -0.0118,0.0039 -0.02363,0.0079 -0.03544,0.0118 -0.0059,0.0019 -0.01156,0.0049 -0.01773,0.0059 -0.0058,0.0011 -0.01191,-0.0011 -0.01773,0 -0.01201,-0.0021 -0.01913,0.0097 -0.02953,0.0118 -0.0058,0.0011 -0.01188,-0.0011 -0.01773,0 -0.01228,0.0021 -0.02315,0.0098 -0.03544,0.0118 -0.0058,0.0011 -0.01193,-0.0011 -0.01773,0 -0.0043,7.94e-4 -0.0075,0.0051 -0.01183,0.0059 -0.0058,0.0011 -0.01188,-0.0011 -0.01773,0 -0.0061,0.0011 -0.01162,0.0047 -0.01773,0.0059 -0.01513,0.003 -0.0085,-0.003 -0.02363,0 -0.0061,0.0013 -0.01162,0.0047 -0.01773,0.0059 -0.0039,7.93e-4 -0.0079,0 -0.01183,0 -0.0059,0 -0.0118,0 -0.01773,0 -0.0059,0 -0.01188,-7.94e-4 -0.01773,0 -0.008,0.0011 -0.01558,0.0048 -0.02363,0.0059 -0.0058,7.94e-4 -0.01188,-7.94e-4 -0.01773,0 -0.01495,-5.29e-4 -0.0272,0.0094 -0.04134,0.0118 -0.0058,0.0011 -0.01188,-0.0011 -0.01773,0 -0.0061,0.0011 -0.0118,0.0039 -0.01773,0.0059 -0.0059,0.0019 -0.01183,0.0039 -0.01773,0.0059 -0.0059,0.0019 -0.01161,0.0047 -0.01773,0.0059 -0.0039,7.94e-4 -0.008,-0.0011 -0.01183,0 -0.0043,0.0011 -0.0075,0.0051 -0.0118,0.0059 -0.0058,0.0011 -0.01193,-0.0011 -0.01773,0 -0.0043,7.94e-4 -0.0075,0.0048 -0.01183,0.0059 -0.0046,0.0011 -0.02929,0 -0.03543,0 -0.02167,0 -0.04331,0 -0.06497,0 -0.0039,0 -0.0079,0 -0.0118,0 -0.0039,0 -0.008,-0.0011 -0.01183,0 -0.0043,0.0011 -0.0075,0.0048 -0.0118,0.0059 -0.0076,0.0019 -0.0159,-0.0016 -0.02363,0 -0.0061,0.0013 -0.01159,0.0049 -0.01773,0.0059 -0.0058,0.0011 -0.01193,-0.0011 -0.01773,0 -0.0043,7.94e-4 -0.0075,0.0051 -0.01183,0.0059 -0.0058,0.0011 -0.01199,-0.0013 -0.01773,0 -0.0027,7.94e-4 -0.0033,0.005 -0.0059,0.0059 -0.0033,0.0011 -0.03042,0 -0.03543,0 -0.02993,0 0.007,-0.0019 -0.02363,0.0059 -0.0038,0.0011 -0.0079,0 -0.0118,0 -0.0077,0 -0.02286,-0.0013 -0.02953,0 -0.0061,0.0013 -0.01161,0.0047 -0.01773,0.0059 -0.0039,7.93e-4 -0.0079,-7.94e-4 -0.0118,0 -0.0061,0.0013 -0.01161,0.0047 -0.01773,0.0059 -0.0058,0.0011 -0.01212,-0.0019 -0.01773,0 -0.0042,0.0013 -0.0075,0.0048 -0.0118,0.0059 -0.0038,0.0011 -0.0081,-0.0013 -0.01183,0 -0.0026,7.94e-4 -0.0033,0.005 -0.0059,0.0059 -0.0037,0.0013 -0.0079,0 -0.0118,0 -0.0039,0.0019 -0.0076,0.0045 -0.0118,0.0059 -0.0056,0.0019 -0.01199,-0.0013 -0.01773,0 -0.0043,0.0011 -0.0075,0.0048 -0.0118,0.0059 -0.0057,0.0013 -0.01212,-0.0019 -0.01773,0 -0.0042,0.0013 -0.0076,0.0045 -0.0118,0.0059 -0.0037,0.0013 -0.0083,-0.0019 -0.0118,0 -0.0024,0.0013 -0.0033,0.005 -0.0059,0.0059 -0.0037,0.0013 -0.0079,0 -0.01183,0 -0.0019,0 -0.0042,-7.94e-4 -0.0059,0 -0.0024,0.0013 -0.0034,0.0047 -0.0059,0.0059 -0.0019,7.94e-4 -0.0042,-7.93e-4 -0.0059,0 -0.0024,0.0013 -0.0034,0.0047 -0.0059,0.0059 -0.0037,0.0019 -0.01992,-0.0019 -0.02363,0 -0.0024,0.0013 -0.0034,0.0047 -0.0059,0.0059 -0.0063,0.0031 -0.0055,-0.0031 -0.0118,0 -0.0024,0.0013 -0.0034,0.0047 -0.0059,0.0059 -0.0019,7.94e-4 -0.0039,0 -0.0059,0 -0.0019,0 -0.0039,0 -0.0059,0 -0.0098,0 -0.01969,0 -0.02953,0 -0.0059,0 -0.01212,-0.0019 -0.01773,0 -0.0026,7.94e-4 -0.0034,0.0047 -0.0059,0.0059 -0.0034,0.0016 -0.02964,-0.0013 -0.03544,0 -0.0043,0.0011 -0.0076,0.0045 -0.0118,0.0059 -0.0019,5.29e-4 -0.0039,0 -0.0059,0 -0.0079,0 -0.0159,-0.0016 -0.02363,0 -0.0061,0.0013 -0.01162,0.0047 -0.01773,0.0059 -0.0077,0.0016 -0.0159,-0.0016 -0.02363,0 -0.01185,-0.0013 -0.01923,0.0092 -0.02953,0.0118 -0.0038,0.0011 -0.008,-0.0011 -0.01183,0 -0.0043,0.0011 -0.0075,0.0048 -0.0118,0.0059 -0.0038,0.0011 -0.0081,-0.0013 -0.0118,0 -0.0026,7.94e-4 -0.0033,0.005 -0.0059,0.0059 -0.0037,0.0013 -0.0079,0 -0.01183,0 -0.0019,0 -0.0042,-7.93e-4 -0.0059,0 -0.0024,0.0013 -0.0033,0.005 -0.0059,0.0059 -0.0075,0.0024 -0.01598,-0.0019 -0.02363,0 -0.0085,0.0021 -0.01508,0.0097 -0.02363,0.0118 -0.0038,0.0011 -0.0079,-7.94e-4 -0.0118,0 -0.01185,-0.0013 -0.01924,0.0092 -0.02953,0.0118 -0.0038,0.0011 -0.0079,0 -0.0118,0 -0.0039,0 -0.008,-0.0011 -0.01183,0 -0.0043,0.0011 -0.0076,0.0045 -0.0118,0.0059 -0.0053,0.0019 -0.01241,-0.0019 -0.01773,0 -0.0026,7.93e-4 -0.0033,0.005 -0.0059,0.0059 -0.0056,0.0019 -0.0118,0 -0.01773,0 -0.0118,0 -0.02363,0 -0.03543,0 -0.01773,0 -0.03544,0 -0.05315,0 -0.0026,0 -0.01593,7.94e-4 -0.01773,0 -0.0024,-0.0013 -0.0034,-0.0047 -0.0059,-0.0059 -0.0047,-0.0024 -0.01299,0.0024 -0.01773,0 -0.0024,-0.0013 -0.0034,-0.0047 -0.0059,-0.0059 -0.0047,-0.0024 -0.01299,0.0024 -0.01773,0 -0.0024,-0.0013 -0.0034,-0.0047 -0.0059,-0.0059 -0.0019,-7.94e-4 -0.0042,7.94e-4 -0.0059,0 -0.0024,-0.0013 -0.0033,-0.005 -0.0059,-0.0059 -0.0053,-0.0037 -0.01212,0.0019 -0.01773,0 -0.0042,-0.0013 -0.0076,-0.0045 -0.0118,-0.0059 -0.0056,-0.0019 -0.01212,0.0019 -0.01773,0 -0.0026,-7.94e-4 -0.0034,-0.0047 -0.0059,-0.0059 -0.0019,-7.94e-4 -0.004,5.29e-4 -0.0059,0 -0.0042,-0.0013 -0.0076,-0.0045 -0.0118,-0.0059 -0.0056,-0.0019 -0.02379,0.0019 -0.02953,0 -0.0042,-0.0013 -0.0075,-0.0048 -0.0118,-0.0059 -0.0057,-0.0013 -0.0118,0 -0.01773,0 -0.01183,0 -0.02363,0 -0.03544,0 -0.0057,0 -0.03368,7.94e-4 -0.03543,0 -0.0024,-0.0013 -0.0034,-0.0047 -0.0059,-0.0059 -0.0037,-0.0019 -0.01992,0.0019 -0.02363,0 -0.0024,-0.0013 -0.0033,-0.005 -0.0059,-0.0059 -0.0027,-7.94e-4 -0.02101,0.0013 -0.02363,0 -0.0024,-0.0013 -0.0034,-0.0047 -0.0059,-0.0059 -0.0024,-0.0011 -0.01651,0.0013 -0.01773,0 -0.0013,-0.0013 0.0013,-0.0045 0,-0.0059 -0.0013,-0.0013 -0.0045,0.0013 -0.0059,0 -0.0013,-0.0013 0.0013,-0.0045 0,-0.0059 -0.0013,-0.0013 -0.0045,0.0013 -0.0059,0 -0.0013,-0.0013 0.0013,-0.0045 0,-0.0059 -0.0013,-0.0013 -0.0042,7.94e-4 -0.0059,0 -0.0016,-7.94e-4 -0.01693,-0.01614 -0.01773,-0.01773 -7.94e-4,-0.0019 0.0013,-0.0045 0,-0.0059 -0.0013,-0.0013 -0.0045,0.0013 -0.0059,0 -0.0013,-0.0013 0.0013,-0.0045 0,-0.0059 -0.0013,-0.0013 -0.0045,0.0013 -0.0059,0 -0.0013,-0.0013 0.0013,-0.0045 0,-0.0059 -0.0013,-0.0013 -0.0045,0.0013 -0.0059,0 -0.0013,-0.0013 0.0013,-0.0045 0,-0.0059 -0.0013,-0.0013 -0.0039,0 -0.0059,0 0,-0.0019 0.0013,-0.0045 0,-0.0059 -0.0013,-0.0013 -0.0045,0.0013 -0.0059,0 -0.0028,-0.0028 0.0028,-0.009 0,-0.0118 -0.0013,-0.0013 -0.0045,0.0013 -0.0059,0 -0.0013,-0.0013 7.93e-4,-0.0042 0,-0.0059 -0.0013,-0.0024 -0.0047,-0.0034 -0.0059,-0.0059 -7.93e-4,-0.0019 0.0013,-0.0045 0,-0.0059 -0.0013,-0.0013 -0.0045,0.0013 -0.0059,0 -0.0028,-0.0028 0.0028,-0.009 0,-0.0118 -0.01574,0 0.0019,0.0019 -0.0059,-0.0059 -0.0013,-0.0013 -0.0045,0.0013 -0.0059,0 -0.0013,-0.0013 7.94e-4,-0.0042 0,-0.0059 -0.0013,-0.0024 -0.0047,-0.0034 -0.0059,-0.0059 -7.94e-4,-0.0019 5.29e-4,-0.004 0,-0.0059 -0.0024,-0.0068 -0.0061,-0.01312 -0.0092,-0.01969 z"
       style="fill:#8e7e0f;fill-opacity:1;stroke:none;stroke-width:0.26458332px;stroke-linecap:butt;stroke-linejoin:miter;stroke-opacity:1" />
    <path
       id="path6124"
       d="m 74.033776,40.188067 c 0.107868,0.280336 0.338597,0.516545 0.599073,0.658141 0.280986,0.146231 0.401039,0.449222 0.54429,0.708633 0.09347,0.261604 0.09168,0.551701 0.246812,0.786194 0.180831,0.248684 0.296637,0.535075 0.404715,0.817143 0.103227,0.221702 0.134736,0.472023 0.204318,0.704123 0.07493,0.298101 0.141806,0.591174 0.234702,0.87771 0.075,0.405317 0.490457,0.03414 0.600222,-0.157851 0.172063,-0.221824 0.383284,-0.429896 0.637662,-0.566092 0.228913,-0.208306 0.53362,-0.194886 0.79747,-0.349668 0.290631,-0.102696 0.598113,-0.140371 0.875359,-0.278677 0.266316,-0.132372 0.529473,-0.241262 0.803728,-0.358399 0.210403,-0.149111 0.540124,-0.179981 0.619399,-0.452762 -0.01733,-0.273084 -0.454664,-0.04208 -0.586884,0.06005 -0.264657,0.09991 -0.529501,0.20158 -0.810461,0.254423 -0.380946,0.08948 -0.718739,0.299118 -1.097317,0.395847 -0.278608,0.04931 -0.529294,0.15546 -0.799059,0.241438 -0.277492,0.131033 -0.543501,0.01311 -0.680998,-0.18969 -0.190535,-0.210957 -0.32258,-0.463904 -0.365533,-0.747799 -0.161318,-0.372928 -0.329803,-0.572478 -0.477433,-0.869627 -0.103866,-0.268251 -0.286947,-0.503052 -0.453525,-0.740602 -0.134218,-0.207622 -0.221657,-0.438393 -0.344385,-0.655362 -0.110401,-0.245369 -0.297858,-0.597612 -0.628598,-0.435715 -0.162509,0.0945 -0.155695,0.373964 -0.358548,0.346529 -0.0027,0.298717 0.175195,0.151147 0.03498,-0.04801"
       style="fill:#8e7e0f;fill-opacity:1;stroke:none;stroke-width:0.26458332px;stroke-linecap:butt;stroke-linejoin:miter;stroke-opacity:1" />
    <path
       id="path6121"
       d="m 70.525864,20.476411 c 0.200404,0.221426 0.359455,0.341429 0.501146,0.634785 0.205495,0.169994 0.388971,0.553133 0.668187,0.768416 0.239118,0.282043 0.412564,0.486857 0.567961,0.768422 0.184662,0.199193 0.235394,0.350179 0.43433,0.60138 0.159202,0.263921 0.33844,0.501893 0.36751,0.835245 0.151332,0.414606 0.231123,0.865404 0.43433,1.302975 0.08853,0.255424 0.167271,0.686554 0.30069,1.002287 0.08692,0.49276 0.176987,1.018807 0.26728,1.536812 0.173798,0.50393 0.246146,1.061815 0.3341,1.603635 0.08684,0.44691 0.119555,1.007263 -0.03341,1.43658 -0.05576,0.370173 -0.201243,0.703183 -0.26728,1.0691 -0.174072,0.353564 -0.158824,0.738619 -0.3341,1.102506 -0.07089,0.436155 -0.293224,0.817029 -0.363527,1.275164 -0.100062,0.270758 -0.207627,0.641486 -0.271263,0.929855 -0.10513,0.374851 -0.192682,0.75398 -0.30069,1.135919 -0.102719,0.477044 -0.222734,0.947104 -0.20046,1.469997 0.06532,0.244327 0.186582,0.519102 0.36751,0.601371 0.100031,0.180199 0.216655,0.270891 0.3341,0.36751 0.09533,0.112361 0.304587,0.358535 0.400917,0.534547 0.137529,0.142819 0.502278,0.362856 0.624138,0.436608 0.271205,0.153249 0.167317,-0.118024 0.369798,-0.453304 0.03008,-0.277516 0.175116,-0.551731 0.25058,-0.73501 0.121131,-0.140461 0.951754,-0.08891 1.11085,-0.183762 0.0973,-0.178515 0.06417,-0.273551 0.183764,-0.467741 0.124301,-0.203004 0.328733,-0.375566 0.3341,-0.634783 0.122168,-0.274301 0.09995,-0.717642 0.20046,-1.035671 0.09369,-0.289067 0.591459,-0.411171 0.718299,-0.634785 0.390048,-0.1104 1.366516,-0.633674 1.453289,-0.86865 0.235611,-1.432806 0.34453,-1.464201 0.434353,-2.205024 0.07744,-0.141327 -0.05436,-0.360262 -0.367496,-0.434332 -0.221126,-0.218796 -0.919318,0.209852 -1.135915,0.367502 -0.428454,0.397 -0.852391,0.968998 -1.236162,1.25285 -0.160921,0.199023 -0.785838,0.652565 -1.085806,0.7183 -0.378853,0.03732 -0.325947,-1.220318 -0.367514,-1.57022 0.04357,-0.484159 0.117667,-0.941781 0.116941,-1.503399 0.08435,-0.35254 -0.04121,-0.802187 0.10023,-1.169315 0.0762,-0.576392 -0.03512,-1.14382 0,-1.737257 -0.05855,-0.406944 -0.09814,-0.816054 -0.20046,-1.202724 -0.11521,-0.357902 -0.192313,-0.776326 -0.30069,-1.102507 -0.127927,-0.284409 -0.159579,-0.595941 -0.3341,-0.868653 -0.116792,-0.217693 -0.235572,-0.525368 -0.36751,-0.801832 -0.107642,-0.374943 -0.29548,-0.663313 -0.40091,-1.002287 -0.368861,-0.525694 -0.755201,-1.080034 -1.169325,-1.570246 -0.437776,-0.559743 -0.94601,-1.100452 -1.536819,-1.50342"
       style="fill:#b07712;fill-opacity:1;stroke:none;stroke-width:0.26458332px;stroke-linecap:butt;stroke-linejoin:miter;stroke-opacity:1" />
    <path
       id="path6126"
       d="m 78.209745,40.922384 c 0.09687,0.09868 0.234452,0.128004 0.356365,0.181805 0.09446,0.09274 0.230238,0.107777 0.334773,0.176646 0.08919,0.05893 0.184971,0.125115 0.283058,0.178254 0.108322,0.07376 0.24203,0.09391 0.359822,0.150083 0.09779,0.05363 0.20091,0.09131 0.296096,0.150422 0.144194,0.02116 0.246594,0.138133 0.374693,0.197511 0.115328,0.06884 0.221379,0.155623 0.349788,0.200859 0.127077,0.04968 0.263522,0.08158 0.401996,0.08999 0.111501,0.01635 0.227301,-0.05253 0.302187,-0.133108 0.05676,-0.08046 0.143242,-0.157303 0.172366,-0.256787 0.03656,-0.09539 0.05365,-0.196762 0.0335,-0.297933 -0.0077,-0.167387 -0.02811,-0.216947 -0.124023,-0.218517 -0.108869,0.05638 -0.157905,0.385325 -0.262603,0.449014 -0.275551,0.104843 -0.545218,-0.09273 -0.865827,-0.218253 -0.09733,-0.02214 -0.35145,-0.137592 -0.450935,-0.143542 -0.310473,-0.212389 -0.425095,-0.165706 -0.76398,-0.3487 -0.120148,-0.01363 -0.225931,-0.07953 -0.346683,-0.09102 -0.09747,-0.02646 -0.219757,-0.0294 -0.329548,-0.03366 -0.03913,-0.01671 -0.07849,-0.0208 -0.121046,-0.03305 z"
       style="fill:#8e7e0f;fill-opacity:1;stroke:none;stroke-width:0.26458332px;stroke-linecap:butt;stroke-linejoin:miter;stroke-opacity:1" />
    <path
       id="path4529"
       d="m 59.350641,54.961739 c -1.579905,0.07214 -3.186865,-0.226308 -4.39369,-1.025254 -1.136756,-1.158682 -0.786401,-2.904889 -0.967279,-2.853468 0.317821,-2.91414 1.443942,-5.762316 2.268329,-8.602806 0.921195,-2.198231 -1.799289,-3.430464 -1.574173,-5.225365 0.359779,-2.237143 3.08843,-2.716059 4.323593,-4.118315 1.756057,-1.482084 4.387121,-1.225262 5.533299,0.374058 1.469795,1.225232 3.113247,1.147399 3.415096,3.513666 -0.842401,1.443726 -0.72985,3.231353 -0.796654,4.863217 0.09823,1.854952 0.993859,3.549286 1.684509,5.215037 0.31431,1.804998 0.588614,4.000845 -0.687308,5.461394 -1.048652,1.388139 -2.9383,1.818918 -4.563465,2.118415 -1.405177,0.13807 -2.828558,0.308325 -4.242257,0.279421 z m 0.842674,-1.287497 c 1.927999,-0.141062 3.875342,-0.30996 5.738435,-0.786038 0.788224,-0.0964 2.867104,-2.198194 0.761359,-1.354585 -2.220894,0.775669 -4.591507,0.115418 -6.815911,0.70042 -1.268621,0.295386 -3.821405,-0.802583 -4.3034,0.195972 1.045075,1.270249 3.114781,1.313007 4.619517,1.244231 z m -3.030104,-1.761809 c -0.438368,-0.08919 -0.141981,-0.0396 0,0 z m 2.296268,-0.28451 c 2.326236,-0.590795 4.819999,0.47552 7.090004,-0.569011 2.339456,-0.516702 1.899754,-3.26846 1.304922,-4.957028 -1.163288,-2.386262 -1.138964,-5.078336 -0.92566,-7.652497 0.319165,-0.696568 0.894308,-2.775723 -0.913355,-3.346118 -1.770547,-0.923275 -3.308922,-3.497663 -5.503769,-2.341952 -1.616041,1.216482 -3.716923,2.548477 -4.956257,3.629787 -0.904057,1.561563 0.452088,2.664077 1.318551,3.7776 0.607807,2.027412 -0.647958,4.025231 -1.063155,5.981963 -0.684539,1.659456 -1.592561,4.998031 1.067243,5.187146 0.833827,0.215605 1.714871,0.530378 2.581476,0.29011 z m 0.74134,-2.01396 c -1.47377,-1.001157 1.171601,-3.029627 0.663867,-0.590134 0.119533,0.356068 -0.326325,0.756981 -0.663867,0.590134 z m 2.204049,-0.246807 c -0.487519,-1.074513 0.56504,-2.539489 0.895196,-0.696941 -0.04701,0.377907 -0.578792,0.859765 -0.895196,0.696941 z m 13.61371,-3.035117 c -0.20499,-1.65703 -0.495847,-3.592364 -1.706775,-4.900196 -0.655768,-0.82781 -1.571816,-2.882712 -2.307679,-2.647954 -1.028565,1.355106 -1.507549,1.938385 -2.787831,3.049696 -1.192459,1.1872 -2.428899,-1.149567 -1.029625,-1.648465 1.359147,-0.876052 2.647367,-1.975354 3.615652,-3.249725 1.161246,-1.221966 1.479544,-3.146122 1.973645,-4.813977 0.71978,-3.01194 0.01088,-6.236597 -1.392419,-8.939211 -1.125115,-2.195925 -3.07147,-3.668798 -4.940066,-5.171144 -1.486401,-0.760569 -2.802087,-1.594077 -4.558018,-1.788685 -3.571232,-0.517448 -7.342682,0.835483 -9.995641,3.228483 -2.735409,2.756277 -5.026669,6.48446 -4.548477,10.517716 -0.03041,2.932496 1.635307,5.467738 3.143098,7.84534 0.308719,0.663114 1.58029,1.631204 2.225846,1.863818 0.575012,0.20519 1.518594,0.97175 2.119876,1.341041 0.338955,0.208176 0.14157,1.092006 -0.261044,1.099874 -1.923629,-0.91673 -3.929276,-2.002707 -5.135559,-3.876972 -0.860185,-1.097115 -1.290052,-2.805739 -2.057563,-0.941918 -0.5512,1.833274 -1.363784,2.938406 -3.322479,2.179249 -1.252272,0.09754 -2.784692,-0.220463 -3.801338,1.053686 1.270552,0.143465 2.791116,-0.752989 4.447849,-0.18061 2.025029,0.379764 -1.901147,0.32085 -2.577844,0.174665 -1.017721,0.09222 -2.790892,2.377243 -0.583946,1.245996 1.728938,-0.578941 3.555771,-0.301008 5.340055,-0.295186 0.90274,-0.712868 1.358595,-3.22525 2.52175,-2.794269 2.410193,1.574245 -1.610883,1.704928 -1.977375,3.244035 -1.017537,0.693828 -2.907816,-0.173166 -4.234748,0.264512 -1.190643,0.275039 -4.695594,0.845016 -2.774781,-1.194575 -1.674751,-0.689291 -0.224984,-0.502067 0.125869,-1.265305 -2.411742,-0.04141 -0.69257,-1.396016 0.599019,-1.614386 0.703088,0.455764 3.293858,0.877676 4.657512,0.981754 0.380103,-1.394166 1.767875,-2.947129 1.476049,-4.282476 -1.095671,-2.466411 -1.385819,-5.290663 -1.022427,-7.948889 0.616169,-3.078215 2.524076,-5.688702 4.850852,-7.71695 1.705118,-1.814333 4.23344,-2.671118 6.600097,-3.249072 2.481065,-0.58249 5.100012,-0.02702 7.3069,1.143193 1.665405,0.359639 3.259553,2.277535 4.825355,3.3223 2.324821,2.484517 3.701989,5.772936 3.944267,9.166677 0.03218,2.719127 -0.523165,5.42527 -1.7626,7.848708 0.01645,1.194705 1.167348,2.238367 1.97889,3.107413 0.304021,1.336918 1.274715,2.833228 1.526487,4.068105 1.139471,-0.795185 3.107135,-1.562431 3.974513,-2.058975 -0.641449,-0.37719 -4.038314,-2.384518 -1.546227,-1.355781 1.222836,0.617128 2.817274,1.971604 2.341439,-0.338911 0.228057,-1.338791 0.159071,-2.082009 1.056296,-2.641045 -0.997392,-0.270229 -3.586477,0.337979 -5.229806,0.597649 -2.850114,0.545809 -0.241219,-2.912386 -0.04079,-4.259864 0.453833,-0.922761 0.628907,-1.376362 1.324591,-2.025705 0,0 0.805797,-0.667623 0.378979,0.3451 -0.525968,0.881184 -0.848732,1.495166 -0.868542,2.2106 0.254888,-0.133252 0.317535,-0.253209 0.528446,-0.362332 0.03528,0.319658 -0.199342,0.963666 -0.384365,1.358099 -0.223624,0.09998 -0.274653,0.206012 -0.485036,0.319987 0.06868,0.440978 -0.688452,1.780202 0.783858,1.789642 1.754368,-0.284512 3.751237,-1.140969 5.441573,-0.583462 -0.973203,0.499167 -1.776954,1.714504 -1.82831,2.920063 -0.171132,1.559055 0.305615,3.186754 -1.972634,2.845801 -1.586194,0.302017 -2.912892,1.698421 -3.723897,2.92741 -0.148588,0.279025 -0.211752,0.228555 -0.250922,0.08554 z M 42.029542,39.49905 c 0.742273,-0.464909 3.185479,-0.292013 0.994452,-0.728324 -0.928425,-0.64802 -3.396743,1.043516 -0.994447,0.728344 z M 64.51025,31.338789 c -0.975662,-1.000764 -1.136547,-3.090131 -0.09082,-3.865628 1.368286,-0.820152 1.441949,2.215193 1.143878,3.290143 -0.169568,0.48214 -0.232469,1.020347 -1.053058,0.575485 z m -6.5334,-0.182071 c -0.681841,-0.824909 -0.489511,-3.412376 0.524335,-3.534579 1.380417,-0.07261 1.011993,2.461178 0.4685,3.307506 -0.224937,0.300549 -0.663075,0.38399 -0.992835,0.227073 z m 7.240607,-14.984671 c -1.112717,-0.349281 0.653922,-1.356601 1.486105,-1.932049 0.613771,-0.433676 0.292556,-0.03494 0.731107,-0.614212 0.814536,0.05594 1.318014,0.348409 1.831919,0.833317 -0.905712,0.529461 -1.000561,0.560146 -1.678407,0.831181 -0.698597,0.296778 -1.927444,1.19405 -2.370724,0.881763 z"
       style="fill:#000000;stroke-width:0.03616169" />
    <path
       id="path4570"
       d="m 45.273006,42.411118 c 2.235626,2.82787 5.292618,5.115786 8.781803,6.463706 l 0.383867,-1.57871 c -2.662028,-1.040195 -5.018711,-2.686866 -6.90075,-4.770711 m 27.083728,0.02341 c -1.560066,1.721112 -3.444512,3.142625 -5.557438,4.168701 l 0.277954,1.696911 c 2.247348,-1.026315 4.271295,-2.458551 5.977771,-4.202636 m 4.321942,-6.680455 c 0.877997,-2.244607 1.36007,-4.686762 1.36007,-7.240317 0,-10.987262 -8.924848,-19.91211 -19.912109,-19.91211 -10.987262,0 -19.91211,8.924848 -19.91211,19.91211 0,2.758188 0.562431,5.386405 1.578731,7.776089 l 2.062796,0.455564 c -1.11931,-2.366003 -1.98137,-5.437482 -1.98137,-8.231653 0,-10.090467 8.161486,-18.253907 18.251953,-18.253907 10.090467,0 18.253906,8.16344 18.253906,18.253907 0,2.594627 -0.53976,5.06171 -1.513249,7.295289 0.522266,0.550493 1.09984,0.285163 1.811382,-0.05497 z"
       style="color:#000000;font-style:normal;font-variant:normal;font-weight:normal;font-stretch:normal;font-size:medium;line-height:normal;font-family:sans-serif;font-variant-ligatures:normal;font-variant-position:normal;font-variant-caps:normal;font-variant-numeric:normal;font-variant-alternates:normal;font-feature-settings:normal;text-indent:0;text-align:start;text-decoration:none;text-decoration-line:none;text-decoration-style:solid;text-decoration-color:#000000;letter-spacing:normal;word-spacing:normal;text-transform:none;writing-mode:lr-tb;direction:ltr;text-orientation:mixed;dominant-baseline:auto;baseline-shift:baseline;text-anchor:start;white-space:normal;shape-padding:0;clip-rule:nonzero;display:inline;overflow:visible;visibility:visible;opacity:1;isolation:auto;mix-blend-mode:normal;color-interpolation:sRGB;color-interpolation-filters:linearRGB;solid-color:#000000;solid-opacity:1;vector-effect:none;fill:#000000;fill-opacity:1;fill-rule:nonzero;stroke:none;stroke-width:1.65937817;stroke-linecap:butt;stroke-linejoin:miter;stroke-miterlimit:4;stroke-dasharray:none;stroke-dashoffset:0;stroke-opacity:1;color-rendering:auto;image-rendering:auto;shape-rendering:auto;text-rendering:auto;enable-background:accumulate" />
  </g>
</svg>
